<svg width="1020" height="735" viewBox="0 0 1020 735" fill="none" xmlns="http://www.w3.org/2000/svg">
<rect width="1020" height="735" fill="#E5E5E5"/>
<g id="undraw_reading_0re1 1" clip-path="url(#clip0)">
<path id="Vector" opacity="0.8" d="M502 734.196C645.042 734.196 761 719.645 761 701.696C761 683.747 645.042 669.196 502 669.196C358.958 669.196 243 683.747 243 701.696C243 719.645 358.958 734.196 502 734.196Z" fill="#545454"/>
<g id="sunset">
<path id="Vector_2" d="M940.125 423.809L840 471.196L928.615 404.934C914.213 382.454 898.033 361.163 880.231 341.266L446 449.196L838.233 299.573C820.31 283.758 801.275 269.25 781.276 256.158L119.609 362.736C49.357 450.586 11.0604 559.711 11.0063 672.196H1006.99C1006.95 584.958 983.887 499.276 940.125 423.809Z" fill="#FF5757"/>
<path id="Vector_3" d="M727.123 225.392C659.19 192.258 584.583 175.089 509 175.196C355.17 175.196 217.639 244.949 126.29 354.545C282.716 320.27 555.067 260.939 727.123 225.392Z" fill="#FF5757"/>
</g>
<path id="Vector_4" d="M1020 671.196H0V673.196H1020V671.196Z" fill="#2F2E41"/>
<path id="Vector_5" d="M434.869 595.986C434.262 599.83 433.38 603.626 432.231 607.344C430.936 610.984 428.938 614.35 427.754 618.027C423.982 629.749 429.212 642.818 437.564 651.865C444.808 659.68 454.157 665.231 464.486 667.851C472.021 669.746 479.856 670.019 487.621 670.282C509.124 671.011 531.18 671.664 551.555 664.753C557.992 662.516 564.21 659.692 570.129 656.315C571.998 655.425 573.645 654.128 574.949 652.52C576.503 650.308 576.702 647.438 576.688 644.735C576.643 635.619 574.795 626.55 575.233 617.445C575.476 612.402 576.42 607.362 575.956 602.334C575.313 596.624 572.92 591.252 569.107 586.954C565.293 582.656 560.245 579.641 554.652 578.322C548.872 577.081 542.877 577.757 536.992 578.323C521.717 579.791 506.377 580.477 491.033 580.378C475.354 580.278 459.772 577.885 444.172 577.635C439.558 577.561 439.652 578.983 438.183 583.448C436.83 587.558 435.723 591.745 434.869 595.986Z" fill="#2F2E41"/>
<path id="Vector_6" d="M570.17 289.907C549.485 254.957 508.562 253.328 508.562 253.328C508.562 253.328 468.686 248.229 443.105 301.459C419.261 351.074 386.355 398.978 437.807 410.592L447.101 381.666L452.856 412.746C460.182 413.272 467.531 413.398 474.871 413.122C529.972 411.343 582.448 413.642 580.759 393.87C578.513 367.585 590.073 323.537 570.17 289.907Z" fill="#2F2E41"/>
<path id="Vector_7" d="M479.364 370.9C478.61 374.846 477.796 378.935 475.425 382.177C472.697 385.907 468.25 388.038 465.316 391.608C460.899 396.981 460.645 404.542 460.627 411.498C460.61 417.905 460.74 424.74 464.314 430.058C466.633 433.51 470.161 435.93 473.61 438.254C487.01 447.285 501.49 456.478 517.647 456.776C524.341 456.899 531.519 455.17 535.924 450.128C537.825 447.759 539.321 445.091 540.349 442.233C544.48 432.05 546.984 421.28 547.77 410.319C548.137 405.162 548.102 399.854 546.357 394.988C544.394 389.515 540.425 385.013 537.803 379.824C534.702 373.655 533.568 366.683 534.553 359.849C534.684 359.367 534.644 358.856 534.439 358.401C534.224 358.158 533.955 357.967 533.653 357.845C533.352 357.723 533.026 357.672 532.702 357.697L500.666 355.391C497.682 355.242 494.711 354.903 491.771 354.373C490.044 354.022 485.483 351.569 483.836 352.222C480.788 353.429 479.988 367.629 479.364 370.9Z" fill="#8D8D8F"/>
<path id="Vector_8" d="M510 375.196C535.957 375.196 557 354.154 557 328.196C557 302.239 535.957 281.196 510 281.196C484.043 281.196 463 302.239 463 328.196C463 354.154 484.043 375.196 510 375.196Z" fill="#CCCCCE"/>
<path id="Vector_9" d="M485.956 433.465C488.405 436.025 491.001 438.56 494.211 440.061C497.479 441.412 500.988 442.08 504.524 442.025C512.996 442.263 522.181 440.711 528.074 434.62C535.672 426.769 535.421 414.105 541.376 404.945C541.856 404.114 542.511 403.398 543.295 402.846C544.294 402.302 545.423 402.043 546.559 402.096C554.08 402.026 560.631 406.903 566.544 411.552C569.193 413.634 571.907 415.792 573.578 418.718C574.748 420.999 575.548 423.451 575.951 425.982C578.885 440.305 579.835 454.95 580.778 469.54C581.299 477.599 581.82 485.666 581.781 493.741C581.654 520.347 575.47 546.507 569.32 572.392C568.528 575.728 567.444 579.456 564.411 581.053C563.059 581.661 561.606 582.016 560.126 582.099C542.513 584.167 524.863 586.239 507.131 586.512C500.211 586.618 493.294 586.451 486.38 586.009C485.189 585.993 484.009 585.788 482.884 585.4C481.357 584.666 480.044 583.552 479.073 582.164C469.481 570.077 468.915 553.367 468.977 537.937C469.126 500.211 470.474 462.516 473.02 424.852C473.23 421.743 473.276 417.967 471.036 415.522C475.07 421.979 480.68 427.95 485.956 433.465Z" fill="#FFDE59"/>
<path id="Vector_10" d="M476 379.196C474.413 382.07 462.709 389.205 460.45 391.587C447.826 404.893 424.786 404.393 413.241 418.645C409.179 423.66 407.068 429.96 405.516 436.224C403.321 445.083 402.149 454.744 405.826 463.097C409.365 471.135 416.814 476.692 421.871 483.872C427.424 491.755 429.921 501.327 432.313 510.668C434.08 517.565 435.861 524.633 435.173 531.719C434.391 539.776 430.492 547.154 428.19 554.915C425.888 562.675 425.491 571.919 430.813 578.018C434.724 582.499 440.857 584.275 446.72 585.274C454.229 586.402 461.801 587.062 469.391 587.248C476.093 587.544 483.48 587.601 488.632 583.305C492.698 579.915 494.464 574.414 494.693 569.126C494.922 563.838 493.822 558.596 493.132 553.348C492.418 547.908 492.143 542.42 491.914 536.937C490.883 512.339 490.742 487.724 491.492 463.094C491.648 457.969 491.837 452.781 490.744 447.771C489.307 441.182 485.746 435.294 482.775 429.24C476.877 417.224 474.088 405.552 475 392.196C475.9 379.014 481.649 368.971 476 379.196Z" fill="#3C5947"/>
<path id="Vector_11" d="M542 380.196C544.418 382.681 552.634 383.5 555.71 385.101C558.603 386.437 561.622 387.483 564.722 388.221C575.941 391.458 586.612 396.356 596.382 402.752C598.411 403.939 600.206 405.489 601.676 407.325C603.397 409.719 604.021 412.706 604.605 415.595C606.111 423.055 607.624 430.606 607.286 438.209C606.927 446.279 604.495 454.096 602.084 461.806L593.073 490.615C586.346 512.119 579.577 533.835 577.685 556.287C576.637 568.73 577.103 581.255 579.071 593.586C579.269 594.826 579.435 596.247 578.616 597.199C578.023 597.786 577.242 598.145 576.41 598.214C572.061 598.894 567.852 596.676 563.911 594.714C551.867 588.721 539.013 584.515 525.756 582.23C530.936 574.743 534.934 566.503 537.607 557.8C539.125 552.273 540.32 546.664 541.187 540.998L545.379 516.753C547.085 507.892 548.285 498.94 548.975 489.942C549.292 486.565 549.095 483.16 548.392 479.842C547.426 476.685 546.143 473.634 544.563 470.734C537.654 456.364 534.413 439.964 537.131 424.253C538.321 417.377 540.633 410.492 539.669 403.581C538.742 396.936 539.705 391.772 538 385.196C531 358.196 537.451 375.521 542 380.196Z" fill="#3C5947"/>
<path id="Vector_12" d="M413.121 441.366C409.972 447.902 404.706 453.47 402.914 460.5C402.217 463.786 401.918 467.144 402.024 470.501C401.981 475.56 401.954 480.723 403.507 485.538C404.508 488.638 406.135 491.497 407.307 494.537C408.941 498.783 409.67 503.324 409.445 507.868C409.128 514.164 406.99 520.275 406.822 526.576C406.56 536.485 411.143 545.801 415.615 554.647C416.741 551.86 418.462 549.352 420.658 547.299C422.854 545.246 425.472 543.698 428.33 542.762C431.187 541.827 434.214 541.527 437.199 541.884C440.184 542.24 443.055 543.245 445.611 544.827C446.791 543.738 446.917 541.948 446.963 540.343C447.293 528.847 447.612 517.35 447.919 505.853C448.404 488.072 448.865 470.054 444.774 452.743C442.928 444.927 440.054 437.142 434.786 431.08C432.013 427.888 422.596 419.48 418.043 423.056C415.995 424.664 416.474 429.041 416.149 431.258C415.66 434.762 414.639 438.17 413.121 441.366Z" fill="#3C5947"/>
<path id="Vector_13" d="M608.206 422.532C609.696 427.171 609.785 432.127 609.815 436.999C609.875 446.937 609.744 456.874 609.42 466.81C609.254 471.896 609.025 477.053 607.483 481.903C606.466 485.101 604.897 488.1 603.846 491.288C600.698 500.841 602.418 511.202 602.688 521.257C602.879 524.511 602.601 527.776 601.863 530.951C600.202 537.184 595.737 542.221 592.621 547.869C589.662 553.233 587.876 559.246 584.341 564.25C580.807 569.254 574.688 573.219 568.757 571.683C564.264 570.519 561.071 566.541 558.862 562.459C554.043 553.482 552.395 543.141 554.184 533.11C556.402 520.907 563.57 510.081 566.155 497.95C569.705 481.291 564.31 464.101 564.47 447.069C564.397 444.399 564.759 441.735 565.542 439.182C566.898 435.292 569.811 432.185 572.501 429.065C575.863 425.166 578.987 421.067 581.854 416.791C583.78 413.918 586.396 406.53 589.811 405.915C597.435 404.544 606.315 416.642 608.206 422.532Z" fill="#3C5947"/>
<path id="Vector_14" d="M373.56 588.577C369.344 587.518 365 587.056 360.656 587.205C356.091 587.458 351.632 588.679 347.576 590.788C343.52 592.897 339.959 595.845 337.13 599.437C334.302 603.029 332.27 607.181 331.171 611.619C330.071 616.056 329.929 620.677 330.754 625.174C331.806 630.045 333.527 634.747 335.867 639.147C339.289 646.093 343.394 653.022 349.73 657.473C353.436 660.076 357.725 661.699 361.964 663.296L395.333 675.867C400.242 677.716 405.151 679.565 410.109 681.28C435.015 689.889 460.981 695.051 487.286 696.623C495.298 697.1 503.432 697.233 511.249 695.409C513.104 694.976 515.082 694.331 516.156 692.758C516.792 691.649 517.167 690.411 517.253 689.136L519.306 674.761C519.595 672.737 519.873 670.607 519.131 668.702C518.191 666.286 515.833 664.766 513.585 663.475C491.647 650.875 466.033 643.924 447.568 626.631C443.221 622.56 439.583 616.107 434.301 613.341C428.312 610.205 421.259 608.415 415.068 605.526C401.534 599.209 388.228 591.949 373.56 588.577Z" fill="#2F2E41"/>
<path id="Vector_15" opacity="0.1" d="M406.874 607.956C418.669 611.652 468.465 637.257 477 646.196C475.856 646.608 437.039 624.855 435.874 624.505C425.287 621.328 414.64 618.129 404.586 613.479C402.563 612.544 391.445 608.146 391.949 605.594C392.517 602.715 404.78 607.3 406.874 607.956Z" fill="black"/>
<path id="Vector_16" d="M554.017 704.078C554.687 704.127 555.351 703.932 555.887 703.528C556.122 703.226 556.295 702.88 556.395 702.511C556.495 702.142 556.521 701.756 556.471 701.376C556.453 694.849 556.435 688.321 556.416 681.793C550.785 679.11 544.486 678.25 538.303 677.424L509.454 673.567C510.117 673.656 504.944 685.993 505.737 687.64C507.135 690.543 517.82 693.115 520.835 694.486C531.318 699.251 542.211 704.489 554.017 704.078Z" fill="#CCCCCE"/>
<path id="Vector_17" d="M463.505 681.725C458.058 682.593 451.979 683.36 448.451 687.6C443.978 692.977 445.882 700.992 448.016 707.653C448.333 709.001 448.97 710.252 449.872 711.302C451.328 712.739 453.56 712.95 455.601 713.079C460.569 713.393 465.855 713.64 470.195 711.203C472.161 709.904 474.054 708.497 475.865 706.989C479.065 704.86 482.583 703.251 486.288 702.224C493.098 700.082 500.109 698.637 507.211 697.912C510.01 697.784 512.78 697.296 515.453 696.459C518.072 695.473 520.497 693.516 521.258 690.823C522.264 687.264 520.195 683.636 518.211 680.515C515.74 676.627 513.122 672.533 509.438 669.671C504.062 665.496 501.403 668.701 495.989 671.373C485.74 676.431 474.79 679.921 463.505 681.725Z" fill="#CCCCCE"/>
<path id="Vector_18" d="M449.271 686.632L414.685 676.409C410.479 675.166 406.201 673.912 401.814 673.915C397.428 673.918 392.839 675.357 389.995 678.695C387.313 681.843 386.545 686.145 385.877 690.226L384.446 698.955C383.719 703.391 382.991 707.913 383.646 712.36C384.3 716.808 386.57 721.251 390.516 723.404C395.302 726.015 401.168 724.74 406.51 723.648C417.299 721.442 428.273 720.265 439.285 720.133C443.424 720.083 447.766 720.135 451.424 718.196C455.773 715.892 458.374 711.019 458.821 706.118C459.502 698.661 457.017 688.921 449.271 686.632Z" fill="#2F2E41"/>
<path id="Vector_19" d="M567.612 677.724C572.096 676.938 576.053 674.39 580.349 672.886C586.396 670.768 592.949 670.768 599.356 670.792C601.708 670.8 604.213 670.853 606.171 672.157C608.993 674.035 609.716 677.795 610.196 681.152L613.091 701.401C613.636 705.21 614.177 709.121 613.328 712.873C612.478 716.626 609.92 720.243 606.197 721.211C601.674 722.387 597.241 719.498 592.97 717.6C582.298 712.857 569.891 714.069 558.763 710.524C556.697 709.866 554.485 708.86 553.643 706.863C553.262 705.738 553.126 704.545 553.245 703.364C553.435 696.855 552.062 687.967 554.022 681.746C555.784 676.152 562.608 677.724 567.612 677.724Z" fill="#2F2E41"/>
<path id="Vector_20" d="M640.803 580.427C647.714 578.694 654.878 578.204 661.96 578.981C667.616 579.604 673.444 581.178 677.573 585.093C682.6 589.858 684.215 597.227 684.349 604.152C684.57 617.944 679.996 631.385 671.407 642.179C669.31 644.909 666.816 647.31 664.008 649.302C660.979 651.196 657.751 652.752 654.382 653.941L579.654 683.416C559.995 691.17 540.266 698.946 519.76 704.058C519.2 704.329 518.591 704.485 517.969 704.517C517.347 704.548 516.725 704.455 516.14 704.243C515.555 704.031 515.018 703.704 514.561 703.281C514.104 702.858 513.736 702.348 513.479 701.781C506.932 692.429 501.439 682.381 497.101 671.821C496.896 671.57 496.754 671.273 496.687 670.956C496.621 670.639 496.632 670.31 496.719 669.998C496.807 669.685 496.968 669.399 497.19 669.162C497.412 668.925 497.687 668.746 497.993 668.638L550.849 638.269C554.635 636.093 558.463 633.887 561.607 630.856C563.891 628.643 565.762 626.039 567.13 623.167C568.226 620.878 568.328 615.478 569.727 613.787C571.097 612.131 575.785 611.999 577.949 611.347C581.002 610.412 583.992 609.282 586.9 607.964C598.724 602.674 609.252 594.989 620.587 588.796C626.944 585.161 633.737 582.349 640.803 580.427Z" fill="#2F2E41"/>
<path id="Vector_21" opacity="0.1" d="M610.839 603.106C601.758 609.927 590 616.196 581 623.196C577.928 625.585 526.724 654.373 526 658.196C534.396 659.611 587.883 622.193 595.536 618.459C603.188 614.726 609.972 609.46 616.694 604.234C618.407 602.902 625.667 598.898 620.749 597.41C617.979 596.572 612.884 601.743 610.839 603.106Z" fill="black"/>
<path id="Vector_22" d="M561.07 285.935L520.544 265L464.58 273.564L453 324L481.824 322.907L489.876 304.377V322.601L503.176 322.096L510.895 292.597L515.719 324L563 323.048L561.07 285.935Z" fill="#2F2E41"/>
<path id="Vector_23" d="M552 391.196H465V496.196H552V391.196Z" fill="#38B6FF"/>
<path id="Vector_24" d="M423.699 573.819C425.696 576.801 428.037 579.718 431.245 581.326C433.291 582.261 435.524 582.715 437.772 582.655C440.02 582.595 442.225 582.021 444.218 580.979C448.198 578.845 451.456 575.578 453.58 571.592C457.974 563.833 458.884 554.549 458.336 545.649C457.788 536.749 455.887 527.985 455.046 519.108C454.435 512.655 454.385 506.164 454.336 499.682C454.184 498.319 454.47 496.943 455.152 495.754C456.125 494.425 457.907 494.058 459.486 493.589C468.354 490.954 474.24 482.643 478.461 474.41C481.278 468.913 483.729 462.904 483.185 456.751C482.642 450.597 478.219 444.399 472.074 443.771C467.008 443.253 462.33 446.471 458.675 450.018C449.456 459.021 443.531 470.862 441.852 483.638C441.05 489.895 441.28 496.321 439.578 502.395C435.945 515.364 424.576 523.315 418.911 534.985C412.668 547.843 416.114 562.441 423.699 573.819Z" fill="#CCCCCE"/>
<path id="Vector_25" d="M590.992 524.273C589.699 527.28 587.817 529.999 585.456 532.267C583.096 534.535 580.304 536.308 577.247 537.479C573.448 539.006 569.257 539.262 565.299 538.211C563.337 537.667 561.526 536.677 560.008 535.319C558.49 533.962 557.305 532.272 556.546 530.382C555.941 528.479 555.609 526.499 555.56 524.502C554.992 515.756 555.212 506.744 558.388 498.576C559.613 495.425 561.266 492.438 562.233 489.199C563.183 485.458 563.669 481.614 563.68 477.755L564.724 453.892C564.897 452.16 564.777 450.411 564.37 448.718C563.328 445.265 560.101 443.022 557.14 440.963C549.99 435.99 542.924 430.187 539.459 422.196C538.268 419.79 537.842 417.078 538.237 414.423C539.214 409.684 543.996 406.617 548.722 405.583C551.815 404.907 555.012 404.864 558.122 405.457C561.231 406.049 564.189 407.265 566.816 409.031C569.443 410.797 571.686 413.076 573.408 415.732C575.131 418.388 576.299 421.365 576.84 424.483C577.308 427.176 577.301 429.927 577.575 432.646C578.156 438.415 579.987 443.976 581.132 449.659C583.954 463.659 582.492 478.13 585.283 492.128C587.616 503.831 596.414 511.467 590.992 524.273Z" fill="#CCCCCE"/>
</g>
<defs>
<clipPath id="clip0">
<rect width="1020" height="734.196" fill="white"/>
</clipPath>
</defs>
</svg>
